<?xml version="1.0" encoding="UTF-8" standalone="no"?>
<svg
        viewBox="0 0 49 48"
        fill="none"
        xmlns="http://www.w3.org/2000/svg"
>
    <path
            d="M24.5281 47.4483C37.6546 47.4483 48.2957 37.0273 48.2957 24.1724C48.2957 11.3175 37.6546 0.896545 24.5281 0.896545C11.4016 0.896545 0.760498 11.3175 0.760498 24.1724C0.760498 37.0273 11.4016 47.4483 24.5281 47.4483Z"
            fill="#586DC6"
    />
    <path
            d="M13.9751 17.1431C17.4452 14.6758 20.7251 14.7689 20.7251 14.7689L20.9628 15.0017C16.6846 15.9793 14.7357 17.8879 14.7357 17.8879C14.9258 17.8414 23.5772 12.9534 34.035 18.0276C34.035 18.0276 32.086 16.2586 28.0931 15.1414L28.4258 14.8155C28.9963 14.8155 31.8959 14.9086 35.0332 17.1896C35.0332 17.1896 38.5508 23.0551 38.5508 30.2707C38.4558 30.131 36.3642 33.3896 31.0403 33.4827C31.0403 33.4827 30.1371 32.5051 29.5191 31.6207C32.6089 30.7362 33.7973 29.0138 33.7973 29.0138C27.7603 32.7379 22.4364 32.1793 16.1142 29.6189C16.0667 29.6189 16.0191 29.5724 16.0191 29.5724C15.9716 29.5258 15.9716 29.5258 15.9241 29.5258H15.829C15.4487 29.2931 15.1635 29.1534 15.1635 29.1534C15.1635 29.1534 16.3044 30.9224 19.2991 31.7603C18.5385 32.6448 17.7304 33.6224 17.7304 33.6224C12.4065 33.4827 10.4575 30.2241 10.4575 30.2241C10.4575 23.0086 13.9751 17.1431 13.9751 17.1431Z"
            fill="white"
    />
    <path
            d="M28.8537 27.9896C30.2322 27.9896 31.3255 26.8724 31.3255 25.4758C31.3255 24.1258 30.2322 22.962 28.8537 22.962C27.5227 22.962 26.3818 24.0793 26.3818 25.4758C26.3818 26.8724 27.4751 27.9896 28.8537 27.9896Z"
            fill="#586DC6"
    />
    <path
            d="M20.0597 27.9896C21.4382 27.9896 22.5315 26.8724 22.5315 25.4758C22.5315 24.1258 21.4382 22.962 20.0597 22.962C18.6812 22.962 17.5879 24.0793 17.5879 25.4758C17.5879 26.8724 18.6812 27.9896 20.0597 27.9896Z"
            fill="#586DC6"
    />
</svg>
