<?xml version="1.0" encoding="UTF-8" standalone="no"?>
<svg
        viewBox="0 0 48 47"
        fill="none"
        xmlns="http://www.w3.org/2000/svg"
>
    <path
            d="M24.1761 46.5517C37.3025 46.5517 47.9437 36.1308 47.9437 23.2759C47.9437 10.421 37.3025 0 24.1761 0C11.0496 0 0.408447 10.421 0.408447 23.2759C0.408447 36.1308 11.0496 46.5517 24.1761 46.5517Z"
            fill="#673AB7"
    />
    <path
            d="M12.958 15.781V31.7483H18.5672V34.7276H21.6094L24.6517 31.7483H29.2626L35.3946 25.7431V11.7776H14.4791L12.958 15.781ZM16.5231 13.7793H33.3506V24.7655L29.7855 28.2569H24.1763L21.1341 31.2362V28.2569H16.5231V13.7793Z"
            fill="white"
    />
    <path d="M22.1313 17.7828H24.1754V23.788H22.1313V17.7828Z" fill="white"/>
    <path d="M27.7407 17.7828H29.7847V23.788H27.7407V17.7828Z" fill="white"/>
</svg>
