<?xml version="1.0" encoding="UTF-8" standalone="no"?>
<svg
        version="1.1"
        xmlns="http://www.w3.org/2000/svg"
        xmlns:xlink="http://www.w3.org/1999/xlink"
        preserveAspectRatio="xMidYMid meet"
        viewBox="0 0 1600 1600"
>
    <defs>
        <path
                d="M1600 800C1600 358.17 1241.83 0 800 0C358.17 0 0 358.17 0 800C0 1241.83 358.17 1600 800 1600C1241.83 1600 1600 1241.83 1600 800Z"
                id="a1xYM6O7XC"
        ></path>
        <path
                d="M833.27 394.95L849.64 396.62L865.81 398.93L881.78 401.88L897.52 405.44L913.03 409.6L928.29 414.36L943.28 419.7L958 425.6L972.44 432.05L986.57 439.05L1000.39 446.56L1013.88 454.6L1027.03 463.13L1039.82 472.14L1052.25 481.63L1064.3 491.58L1075.96 501.97L1087.2 512.8L1098.03 524.05L1108.43 535.7L1118.37 547.75L1127.86 560.18L1136.88 572.98L1141.15 579.56L1141.39 579.81L1141.95 580.45L1142.49 581.11L1143.01 581.79L1143.49 582.49L1143.95 583.21L1144.38 583.95L1144.78 584.72L1145.16 585.5L1145.48 586.25L1153.44 599.62L1160.96 613.43L1167.95 627.57L1174.4 642L1180.31 656.72L1185.64 671.72L1190.4 686.98L1194.57 702.48L1198.13 718.23L1201.07 734.19L1203.38 750.36L1205.05 766.73L1206.06 783.28L1206.38 799.01L1206.39 799.05L1206.4 800L1206.39 800.95L1206.38 801L1206.06 816.72L1205.05 833.27L1203.38 849.64L1201.07 865.81L1198.13 881.78L1194.57 897.52L1190.4 913.02L1185.64 928.28L1180.31 943.28L1174.4 958L1167.95 972.43L1160.96 986.57L1153.44 1000.38L1145.48 1013.76L1145.16 1014.5L1144.78 1015.28L1144.38 1016.05L1143.95 1016.79L1143.49 1017.51L1143.01 1018.21L1142.49 1018.89L1141.95 1019.55L1141.39 1020.19L1141.15 1020.44L1136.88 1027.03L1127.86 1039.82L1118.37 1052.25L1108.43 1064.3L1098.03 1075.95L1087.2 1087.2L1075.96 1098.03L1064.3 1108.42L1052.25 1118.37L1039.82 1127.86L1027.03 1136.88L1013.88 1145.4L1000.39 1153.44L986.57 1160.95L972.44 1167.95L958 1174.4L943.28 1180.3L928.29 1185.64L913.03 1190.4L903.29 1193.01L903.28 1193.02L902.8 1193.2L902.32 1193.38L901.83 1193.55L901.34 1193.71L900.84 1193.87L900.34 1194.02L899.84 1194.16L899.33 1194.3L898.82 1194.42L898.31 1194.54L897.8 1194.65L897.29 1194.75L896.78 1194.84L896.28 1194.92L895.77 1194.99L895.43 1195.04L881.78 1198.13L865.81 1201.07L849.64 1203.38L833.27 1205.05L816.72 1206.06L800 1206.4L783.28 1206.06L766.73 1205.05L750.36 1203.38L734.19 1201.07L718.23 1198.13L704.51 1195.02L704.22 1194.98L703.72 1194.91L703.2 1194.82L702.69 1194.71L702.17 1194.6L701.65 1194.47L701.13 1194.34L700.61 1194.19L700.09 1194.02L699.57 1193.85L699.06 1193.66L698.86 1193.59L686.98 1190.4L671.72 1185.64L656.73 1180.3L642 1174.4L627.57 1167.95L613.44 1160.95L599.62 1153.44L586.13 1145.4L572.98 1136.88L560.18 1127.86L547.75 1118.37L535.71 1108.42L524.05 1098.03L512.8 1087.2L501.98 1075.95L491.58 1064.3L481.63 1052.25L472.14 1039.82L463.13 1027.03L458.86 1020.44L458.62 1020.19L458.05 1019.55L457.51 1018.89L457 1018.21L456.52 1017.51L456.06 1016.79L455.63 1016.05L455.22 1015.28L454.85 1014.5L454.53 1013.76L446.57 1000.38L439.05 986.57L432.06 972.43L425.6 958L419.7 943.28L414.37 928.28L409.61 913.02L405.44 897.52L401.88 881.78L398.93 865.81L396.62 849.64L394.95 833.27L393.94 816.72L393.62 801L393.62 800.95L393.6 800L393.62 799.05L393.62 799.01L393.94 783.28L394.95 766.73L396.62 750.36L398.93 734.19L401.88 718.23L405.44 702.48L409.61 686.98L414.37 671.72L419.7 656.72L425.6 642L432.06 627.57L439.05 613.43L446.57 599.62L454.53 586.25L454.85 585.5L455.22 584.72L455.63 583.95L456.06 583.21L456.52 582.49L457 581.79L457.51 581.11L458.05 580.45L458.62 579.81L458.86 579.56L463.13 572.98L472.14 560.18L481.63 547.75L491.58 535.7L501.98 524.05L512.8 512.8L524.05 501.97L535.71 491.58L547.75 481.63L560.18 472.14L572.98 463.13L586.13 454.6L599.62 446.56L613.44 439.05L627.57 432.05L642 425.6L656.73 419.7L671.72 414.36L686.98 409.6L696.76 406.98L697.11 406.81L697.9 406.47L698.7 406.16L699.51 405.87L700.33 405.62L701.16 405.39L702 405.2L702.84 405.04L703.69 404.9L704.54 404.8L705.39 404.72L705.71 404.71L718.23 401.88L734.19 398.93L750.36 396.62L766.73 394.95L783.28 393.94L800 393.6L816.72 393.94L833.27 394.95ZM670.9 1032.76L673.39 1041.59L675.97 1050.26L678.64 1058.77L681.4 1067.12L684.25 1075.3L687.18 1083.3L690.2 1091.13L693.3 1098.76L696.48 1106.21L699.75 1113.47L703.1 1120.53L706.52 1127.38L710.03 1134.02L713.61 1140.45L717.26 1146.66L720.99 1152.64L721.19 1152.95L727.04 1154.27L741.28 1156.88L755.7 1158.92L770.31 1160.4L785.08 1161.3L800 1161.6L814.93 1161.3L829.7 1160.4L844.3 1158.92L858.73 1156.88L872.96 1154.27L879.28 1152.85L881.14 1149.86L884.79 1143.65L888.37 1137.22L891.88 1130.58L895.3 1123.73L898.65 1116.67L901.92 1109.41L905.1 1101.96L908.2 1094.33L911.22 1086.5L914.15 1078.5L917 1070.32L919.76 1061.97L922.43 1053.46L925.01 1044.79L927.5 1035.96L929.83 1027.2L669.42 1027.2L670.9 1032.76ZM525.35 1035.45L534.58 1045.8L544.2 1055.8L554.2 1065.42L564.56 1074.65L575.27 1083.49L586.32 1091.92L597.7 1099.92L609.4 1107.49L621.4 1114.62L633.7 1121.29L646.28 1127.5L659.03 1133.18L657.01 1128.76L653.52 1120.73L650.12 1112.53L646.81 1104.13L643.6 1095.56L640.48 1086.81L637.46 1077.89L634.53 1068.8L631.7 1059.55L628.97 1050.14L626.34 1040.57L623.82 1030.86L622.92 1027.2L518.55 1027.2L525.35 1035.45ZM975.21 1034.06L972.71 1043.77L970.1 1053.34L967.39 1062.75L964.57 1072L961.65 1081.09L958.63 1090.01L955.5 1098.76L952.28 1107.33L948.95 1115.73L945.53 1123.93L942.01 1131.96L941.56 1132.92L953.73 1127.5L966.31 1121.29L978.61 1114.62L990.61 1107.49L1002.31 1099.92L1013.69 1091.92L1024.74 1083.49L1035.45 1074.65L1045.81 1065.42L1055.8 1055.8L1065.42 1045.8L1074.66 1035.45L1081.46 1027.2L976.87 1027.2L975.21 1034.06ZM439.6 829.7L441.08 844.3L443.13 858.72L445.74 872.96L448.9 886.99L452.59 900.81L456.81 914.41L461.54 927.76L466.78 940.87L472.5 953.73L478.71 966.31L485.38 978.6L487.64 982.4L613.19 982.4L612.77 980.2L610.89 969.68L609.12 959.04L607.46 948.28L605.91 937.42L604.48 926.45L603.17 915.38L601.98 904.2L600.91 892.94L599.95 881.59L599.12 870.15L598.42 858.63L597.84 847.04L597.38 835.38L597.06 823.65L597.04 822.4L439.16 822.4L439.6 829.7ZM1001.35 826.85L1001.04 838.58L1000.61 850.24L1000.05 861.83L999.37 873.35L998.57 884.79L997.65 896.14L996.61 907.4L995.45 918.58L994.18 929.65L992.79 940.62L991.29 951.48L989.67 962.24L987.93 972.88L986.26 982.4L1112.37 982.4L1114.63 978.6L1121.3 966.31L1127.5 953.73L1133.23 940.88L1138.46 927.76L1143.2 914.41L1147.42 900.81L1151.11 886.99L1154.27 872.96L1156.88 858.72L1158.93 844.3L1160.41 829.7L1160.85 822.4L1001.42 822.4L1001.35 826.85ZM642.13 831.34L642.54 842.22L643.07 853.05L643.71 863.81L644.47 874.52L645.33 885.15L646.31 895.7L647.4 906.18L648.59 916.56L649.89 926.86L651.3 937.07L652.81 947.17L654.42 957.17L656.14 967.05L657.95 976.82L659.06 982.4L939.97 982.4L940.45 980.02L942.26 970.25L943.98 960.37L945.59 950.37L947.1 940.27L948.51 930.06L949.81 919.76L951 909.38L952.09 898.9L953.07 888.35L953.93 877.72L954.69 867.01L955.33 856.25L955.86 845.42L956.27 834.54L956.57 823.6L956.59 822.4L641.89 822.4L642.13 831.34ZM985.63 623L987.51 633.52L989.28 644.16L990.94 654.92L992.49 665.78L993.92 676.75L995.23 687.83L996.42 699L997.49 710.26L998.45 721.61L999.28 733.05L999.98 744.57L1000.56 756.16L1001.02 767.82L1001.29 777.6L1160.85 777.6L1160.41 770.3L1158.93 755.7L1156.88 741.28L1154.27 727.04L1151.11 713.01L1147.42 699.19L1143.2 685.59L1138.46 672.24L1133.23 659.13L1127.5 646.27L1121.3 633.69L1114.63 621.4L1112.37 617.6L984.59 617.6L985.63 623ZM485.38 621.4L478.71 633.69L472.5 646.27L466.78 659.13L461.54 672.24L456.81 685.59L452.59 699.19L448.9 713.01L445.74 727.04L443.13 741.28L441.08 755.7L439.6 770.3L439.16 777.6L597.03 777.6L597.05 776.35L597.36 764.62L597.79 752.96L598.35 741.37L599.03 729.85L599.83 718.41L600.75 707.06L601.79 695.8L602.95 684.63L604.22 673.55L605.61 662.58L607.11 651.72L608.73 640.96L610.47 630.32L612.31 619.8L612.72 617.6L487.64 617.6L485.38 621.4ZM657.95 619.98L656.14 629.75L654.42 639.63L652.81 649.63L651.3 659.73L649.89 669.94L648.59 680.24L647.4 690.63L646.31 701.1L645.33 711.65L644.47 722.28L643.71 732.99L643.07 743.75L642.54 754.58L642.13 765.46L641.83 776.4L641.82 777.6L956.51 777.6L956.27 768.66L955.86 757.78L955.33 746.95L954.69 736.19L953.93 725.48L953.07 714.85L952.09 704.3L951 693.83L949.81 683.44L948.51 673.14L947.1 662.93L945.59 652.83L943.98 642.83L942.26 632.95L940.45 623.18L939.34 617.6L658.43 617.6L657.95 619.98ZM941.39 474.44L944.88 482.47L948.28 490.67L951.59 499.07L954.8 507.64L957.92 516.39L960.94 525.31L963.87 534.4L966.7 543.65L969.43 553.06L972.06 562.63L974.58 572.34L974.69 572.8L1081.46 572.8L1074.66 564.55L1065.42 554.2L1055.8 544.2L1045.81 534.58L1035.45 525.35L1024.74 516.51L1013.69 508.08L1002.31 500.08L990.61 492.51L978.61 485.38L966.31 478.71L953.73 472.5L940.88 466.78L937.18 465.3L937.82 466.62L941.39 474.44ZM633.7 478.71L621.4 485.38L609.4 492.51L597.7 500.08L586.32 508.08L575.27 516.51L564.56 525.35L554.2 534.58L544.2 544.2L534.58 554.2L525.35 564.55L518.55 572.8L622.3 572.8L623.19 569.14L625.69 559.43L628.3 549.86L631.01 540.45L633.83 531.2L636.75 522.11L639.77 513.19L642.9 504.44L646.12 495.87L649.45 487.48L652.87 479.27L656.39 471.24L658.29 467.15L646.28 472.5L633.7 478.71ZM770.31 439.6L755.7 441.08L741.28 443.12L727.04 445.73L718.86 447.58L717.26 450.14L713.61 456.35L710.03 462.78L706.52 469.42L703.1 476.27L699.75 483.33L696.48 490.59L693.3 498.04L690.2 505.68L687.18 513.5L684.25 521.5L681.4 529.68L678.64 538.03L675.97 546.54L673.39 555.21L670.9 564.04L668.56 572.8L928.98 572.8L927.5 567.24L925.01 558.41L922.43 549.74L919.76 541.23L917 532.88L914.15 524.7L911.22 516.7L908.2 508.88L905.1 501.24L901.92 493.79L898.65 486.53L895.3 479.47L891.88 472.62L888.37 465.98L884.79 459.55L881.14 453.34L877.41 447.36L876.93 446.63L872.96 445.73L858.73 443.12L844.3 441.08L829.7 439.6L814.93 438.7L800 438.4L785.08 438.7L770.31 439.6Z"
                id="a7ihiFcKIp"
        ></path>
    </defs>
    <g>
        <g>
            <g>
                <use
                        xlink:href="#a1xYM6O7XC"
                        opacity="1"
                        fill="#0b32e5"
                        fill-opacity="1"
                ></use>
                <g>
                    <use
                            xlink:href="#a1xYM6O7XC"
                            opacity="1"
                            fill-opacity="0"
                            stroke="#000000"
                            stroke-width="1"
                            stroke-opacity="0"
                    ></use>
                </g>
            </g>
            <g>
                <use
                        xlink:href="#a7ihiFcKIp"
                        opacity="1"
                        fill="#ffffff"
                        fill-opacity="1"
                ></use>
                <g>
                    <use
                            xlink:href="#a7ihiFcKIp"
                            opacity="1"
                            fill-opacity="0"
                            stroke="#000000"
                            stroke-width="1"
                            stroke-opacity="0"
                    ></use>
                </g>
            </g>
        </g>
    </g>
</svg>
