<svg width="272" height="70" viewBox="0 0 272 70" fill="none" xmlns="http://www.w3.org/2000/svg">
<path fill-rule="evenodd" clip-rule="evenodd" d="M2.08955 35C2.08955 16.8241 16.8241 2.08955 35 2.08955C53.1759 2.08955 67.9104 16.8241 67.9104 35C67.9104 53.1759 53.1759 67.9104 35 67.9104C16.8241 67.9104 2.08955 53.1759 2.08955 35ZM35 0C15.67 0 0 15.67 0 35C0 54.33 15.67 70 35 70C54.33 70 70 54.33 70 35C70 15.67 54.33 0 35 0ZM6.52992 35C6.52992 31.0564 7.33173 27.3001 8.78121 23.8852C8.87749 23.8945 8.97511 23.8993 9.07383 23.8993C9.41268 23.8993 9.73843 23.8431 10.0423 23.7397L21.3959 43.4053L32.5111 62.6545C32.35 62.8584 32.2148 63.0836 32.1105 63.3253C17.744 61.8772 6.52992 49.7482 6.52992 35ZM32.0028 65.4146C16.5319 63.9086 4.44037 50.8663 4.44037 35C4.44037 30.7281 5.31692 26.6608 6.89998 22.9684C6.38581 22.4293 6.0701 21.6993 6.0701 20.8955C6.0701 19.2366 7.41492 17.8918 9.07383 17.8918C9.26687 17.8918 9.45565 17.91 9.63856 17.9448C15.1276 9.79845 24.4381 4.4403 35.0001 4.4403C45.5616 4.4403 54.8718 9.79805 60.361 17.9439C60.5424 17.9097 60.7295 17.8918 60.9209 17.8918C62.5798 17.8918 63.9246 19.2366 63.9246 20.8955C63.9246 21.6973 63.6104 22.4258 63.0985 22.9645C64.6826 26.658 65.5598 30.7265 65.5598 35C65.5598 50.9582 53.3278 64.0596 37.7282 65.4396C37.3382 66.6461 36.2057 67.5186 34.8695 67.5186C33.524 67.5186 32.3851 66.634 32.0028 65.4146ZM37.6387 63.3495C52.1253 62.0182 63.4702 49.834 63.4702 35C63.4702 31.0562 62.6683 27.2997 61.2187 23.8847C61.1207 23.8943 61.0214 23.8993 60.9209 23.8993C60.582 23.8993 60.2562 23.8431 59.9523 23.7397L48.5988 43.4051L37.3728 62.8543C37.4761 63.0098 37.5654 63.1755 37.6387 63.3495ZM35.6727 61.6198L44.0055 47.1832C41.4881 49.047 38.3727 50.1492 35 50.1492C31.6239 50.1492 28.5058 49.0449 25.9872 47.1778L34.2954 61.566C34.4812 61.53 34.6731 61.5112 34.8695 61.5112C35.1477 61.5112 35.417 61.549 35.6727 61.6198ZM58.1038 21.9403C58.1624 22.098 58.2338 22.2495 58.3168 22.3935L50.0544 36.7048C50.117 36.1452 50.1492 35.5763 50.1492 35C50.1492 29.4372 47.1509 24.5746 42.6822 21.9403H58.1038ZM11.6779 22.3936L19.9468 36.7162C19.8833 36.1529 19.8507 35.5803 19.8507 35C19.8507 29.4372 22.849 24.5746 27.3177 21.9403H11.8909C11.8323 22.0981 11.7609 22.2496 11.6779 22.3936ZM21.9403 35C21.9403 27.7873 27.7873 21.9403 35 21.9403C42.2126 21.9403 48.0597 27.7873 48.0597 35C48.0597 42.2127 42.2126 48.0597 35 48.0597C27.7873 48.0597 21.9403 42.2127 21.9403 35ZM58.1038 19.8507H35H11.8909C11.7799 19.5516 11.6226 19.275 11.4278 19.0295C16.5486 11.4859 25.1956 6.52985 35.0001 6.52985C44.803 6.52985 53.4487 11.4843 58.5699 19.0258C58.3737 19.2722 58.2154 19.5501 58.1038 19.8507ZM35 32.5187C33.6296 32.5187 32.5187 33.6296 32.5187 35C32.5187 36.3704 33.6296 37.4813 35 37.4813C36.3704 37.4813 37.4813 36.3704 37.4813 35C37.4813 33.6296 36.3704 32.5187 35 32.5187ZM30.4291 35C30.4291 32.4756 32.4756 30.4291 35 30.4291C37.5244 30.4291 39.5709 32.4756 39.5709 35C39.5709 37.5244 37.5244 39.5709 35 39.5709C32.4756 39.5709 30.4291 37.5244 30.4291 35Z" fill="white"/>
<path d="M84 46H86.4887C88.1128 46 88.812 46.9228 88.812 48.1683C88.8461 48.6723 88.6836 49.17 88.3585 49.5573C88.0334 49.9446 87.5709 50.1915 87.0677 50.2465L89 53H87.9774L86.1128 50.329H84.8571V53H84V46ZM86.2556 49.5488C87.4211 49.5488 87.9248 48.956 87.9248 48.1458C87.9248 47.3355 87.3384 46.7728 86.3759 46.7728H84.8722V49.5488H86.2556Z" fill="white"/>
<path d="M92.2223 49.0412C92.2332 48.2861 92.4604 47.5513 92.8751 46.9288C93.2899 46.3064 93.8739 45.8241 94.5536 45.5426C95.2334 45.261 95.9788 45.1928 96.696 45.3464C97.4133 45.5 98.0706 45.8687 98.5853 46.406C99.1001 46.9434 99.4493 47.6255 99.5892 48.3667C99.7291 49.108 99.6534 49.8753 99.3717 50.5723C99.0899 51.2694 98.6147 51.8651 98.0056 52.2847C97.3965 52.7043 96.6807 52.9291 95.9481 52.9308C95.4508 52.9458 94.9558 52.8552 94.494 52.6644C94.0322 52.4736 93.6134 52.1868 93.2638 51.8219C92.9143 51.457 92.6414 51.0217 92.4622 50.5433C92.283 50.0649 92.2013 49.5536 92.2223 49.0412ZM98.6968 49.0412C98.6673 48.4845 98.48 47.9491 98.1581 47.501C97.8362 47.053 97.394 46.7121 96.886 46.5206C96.3781 46.3291 95.8268 46.2954 95.3004 46.4236C94.7741 46.5518 94.2958 46.8364 93.9248 47.242C93.5538 47.6477 93.3063 48.1566 93.2131 48.7057C93.1199 49.2549 93.185 49.8201 93.4004 50.3315C93.6157 50.8429 93.9719 51.2779 94.4248 51.5828C94.8776 51.8876 95.4072 52.0488 95.9481 52.0464C96.3229 52.0448 96.6934 51.9646 97.0372 51.8108C97.381 51.6569 97.6908 51.4327 97.9479 51.1516C98.205 50.8705 98.4039 50.5385 98.5327 50.1757C98.6614 49.8129 98.7173 49.4269 98.6968 49.0412Z" fill="white"/>
<path d="M103.249 45.2581H104.162V52.0546H107.833V52.8735H103.257L103.249 45.2581Z" fill="white"/>
<path d="M111.153 45.2581H115.706V46.077H112.067V48.6482H115.046V49.467H112.067V52.0055H115.92V52.8243H111.153V45.2581Z" fill="white"/>
<path d="M119.439 45.2581H122.029C123.769 45.2581 124.484 46.2653 124.484 47.6246C124.484 49.2623 123.42 49.9829 121.87 49.9829H120.345V52.898H119.439V45.2581ZM121.823 49.1313C123.054 49.1313 123.579 48.4844 123.579 47.6C123.579 46.7157 122.959 46.1015 121.99 46.1015H120.401V49.1313H121.823Z" fill="white"/>
<path d="M127.931 45.2581H128.837V52.0546H132.508V52.8735H127.931V45.2581Z" fill="white"/>
<path d="M138.021 45.2581H138.934L141.755 52.898H140.801L140.134 51.0392H136.821L136.162 52.898H135.209L138.021 45.2581ZM139.848 50.2204L138.482 46.3881L137.139 50.2204H139.848Z" fill="white"/>
<path d="M146.021 49.4834L143.502 45.2581H144.551L146.474 48.5335L148.381 45.2581H149.453L146.911 49.4834V52.898H145.997L146.021 49.4834Z" fill="white"/>
<path d="M152.686 45.2581H153.599V52.898H152.686V45.2581Z" fill="white"/>
<path d="M157.579 45.2581H158.477L162.664 51.3422V45.2581H163.578V52.898H162.648L158.501 46.8794V52.898H157.595L157.579 45.2581Z" fill="white"/>
<path d="M167.184 49.0904C167.15 48.5778 167.221 48.0637 167.393 47.5813C167.564 47.099 167.832 46.659 168.178 46.29C168.525 45.9211 168.943 45.6312 169.405 45.4394C169.868 45.2475 170.364 45.1579 170.862 45.1762C171.386 45.1667 171.907 45.2679 172.392 45.4735C172.877 45.6791 173.316 45.9848 173.682 46.3718L173.047 46.9532C172.756 46.6645 172.412 46.4383 172.036 46.2879C171.659 46.1375 171.258 46.0658 170.854 46.077C170.106 46.1172 169.402 46.4518 168.886 47.0117C168.37 47.5717 168.083 48.3143 168.083 49.0863C168.083 49.8583 168.37 50.6009 168.886 51.1608C169.402 51.7207 170.106 52.0553 170.854 52.0956C171.564 52.1128 172.259 51.8883 172.832 51.4569V49.8192H170.679V49.0003H173.77V52.0301C172.943 52.6818 171.926 53.0227 170.886 52.9963C170.386 53.0194 169.887 52.9335 169.422 52.7441C168.957 52.5548 168.536 52.2663 168.186 51.8976C167.837 51.5288 167.567 51.0881 167.394 50.6044C167.221 50.1206 167.15 49.6047 167.184 49.0904Z" fill="white"/>
<path d="M182.453 45.2581H187.005V46.077H183.366V48.6482H186.346V49.467H183.366V52.0055H187.22V52.8243H182.453V45.2581Z" fill="white"/>
<path d="M190.135 45.2581H191.112L193.344 51.5469L195.568 45.2581H196.538L193.741 52.898H192.947L190.135 45.2581Z" fill="white"/>
<path d="M199.064 49.0412C199.075 48.2865 199.302 47.552 199.716 46.9297C200.131 46.3074 200.714 45.8252 201.393 45.5434C202.073 45.2616 202.818 45.1929 203.535 45.3459C204.252 45.4988 204.909 45.8666 205.424 46.4032C205.939 46.9397 206.289 47.621 206.43 48.3618C206.571 49.1025 206.496 49.8695 206.216 50.5667C205.935 51.2639 205.461 51.8602 204.853 52.2808C204.245 52.7014 203.53 52.9275 202.798 52.9308C202.3 52.947 201.804 52.8572 201.341 52.6669C200.878 52.4767 200.459 52.19 200.108 51.825C199.758 51.46 199.484 51.0243 199.304 50.5454C199.125 50.0664 199.043 49.5543 199.064 49.0412ZM205.546 49.0412C205.517 48.4846 205.329 47.9491 205.008 47.5011C204.686 47.053 204.243 46.7122 203.736 46.5207C203.228 46.3291 202.676 46.2954 202.15 46.4236C201.624 46.5519 201.145 46.8364 200.774 47.2421C200.403 47.6477 200.156 48.1566 200.063 48.7058C199.969 49.2549 200.035 49.8202 200.25 50.3316C200.465 50.8429 200.821 51.278 201.274 51.5828C201.727 51.8876 202.257 52.0488 202.798 52.0465C203.172 52.0436 203.542 51.9627 203.885 51.8085C204.229 51.6542 204.538 51.4299 204.795 51.1491C205.052 50.8683 205.251 50.5367 205.38 50.1745C205.509 49.8122 205.566 49.4267 205.546 49.0412Z" fill="white"/>
<path d="M210.099 45.2581H211.004V52.0546H214.675V52.8735H210.099V45.2581Z" fill="white"/>
<path d="M216.47 45.2581H217.463L219.687 51.5469L221.911 45.2581H222.881L220.084 52.898H219.29L216.47 45.2581Z" fill="white"/>
<path d="M226.201 45.2581H230.746V46.077H227.107V48.6482H230.086V49.467H227.107V52.0055H230.968V52.8243H226.201V45.2581Z" fill="white"/>
<path d="M234.44 45.2581H236.656C237.161 45.2172 237.669 45.2871 238.146 45.4631C238.623 45.6392 239.058 45.9175 239.423 46.2796C239.788 46.6418 240.074 47.0795 240.263 47.564C240.451 48.0485 240.538 48.5687 240.518 49.0904C240.542 49.6091 240.459 50.1272 240.273 50.61C240.087 51.0927 239.804 51.529 239.441 51.8896C239.078 52.2502 238.645 52.5267 238.17 52.7006C237.696 52.8745 237.19 52.9418 236.688 52.8981H234.44V45.2581ZM236.64 52.0546C237.032 52.0758 237.425 52.0146 237.793 51.8746C238.161 51.7345 238.498 51.5187 238.783 51.2402C239.067 50.9617 239.294 50.6264 239.449 50.2547C239.604 49.883 239.684 49.4827 239.684 49.0781C239.684 48.6735 239.604 48.2732 239.449 47.9015C239.294 47.5298 239.067 47.1945 238.783 46.916C238.498 46.6375 238.161 46.4217 237.793 46.2816C237.425 46.1416 237.032 46.0804 236.64 46.1016H235.322V52.0546H236.64Z" fill="white"/>
<path d="M80 17H85.1372L88.549 29.4547H88.6349L91.7578 17H96.8013L99.9242 29.4547H100.002L103.445 17H108.559L102.157 37.3089H97.7694L94.381 23.9824H94.3264L90.7975 37.3089H86.3864L80 17Z" fill="white"/>
<path d="M111.495 17H116.405V37.3089H111.495V17Z" fill="white"/>
<path d="M120.793 17H125.696V33.051H134.159V37.3089H120.793V17Z" fill="white"/>
<path d="M137.227 17H144.254C150.711 17 154.841 21.1801 154.841 27.1817C154.841 33.1833 150.937 37.3011 144.34 37.3011H137.196L137.227 17ZM144.059 33.051C144.834 33.0743 145.605 32.9377 146.325 32.6498C147.045 32.3619 147.697 31.9288 148.241 31.3777C148.785 30.8267 149.209 30.1695 149.486 29.4474C149.763 28.7254 149.888 27.954 149.852 27.1817C149.852 23.78 147.51 21.2579 144.387 21.2579H141.888V33.051H144.059Z" fill="white"/>
<path d="M158.37 17H163.28V33.051H171.744V37.3089H158.37V17Z" fill="white"/>
<path d="M195.228 17H199.85L207.969 29.5325H208.024V17H212.763V37.3089H208L200.021 25.1267H199.967V37.3089H195.228V17Z" fill="white"/>
<path d="M217.002 17H224.029C230.485 17 234.615 21.1801 234.615 27.1817C234.615 33.1833 230.712 37.3011 224.115 37.3011H217.002V17ZM223.833 33.051C224.609 33.0743 225.38 32.9377 226.1 32.6498C226.819 32.3619 227.472 31.9288 228.016 31.3777C228.559 30.8267 228.983 30.1695 229.261 29.4474C229.538 28.7254 229.662 27.954 229.626 27.1817C229.626 23.78 227.284 21.2579 224.161 21.2579H221.663V33.051H223.833Z" fill="white"/>
<path d="M238.144 17H251.417V21.2579H242.829V25.15H249.629V29.2445H242.829V33.0198H252.041V37.2778H238.144V17Z" fill="white"/>
<path d="M255.5 17H263.448C268.499 17 270.74 19.9424 270.74 24.0057C270.74 26.9559 269.42 29.0733 266.891 30.1008L271.739 37.3089H266.118L261.925 30.8013H260.177V37.3478H255.492L255.5 17ZM262.589 26.5823C264.658 26.5823 265.774 25.5782 265.774 23.8968C265.774 22.3399 264.822 21.2035 262.652 21.2035H260.153V26.5823H262.589Z" fill="white"/>
<path d="M180.605 29.6415L182.838 22.7759H182.9L184.68 28.1859L187.631 37.3089H192.628L185.164 17H180.574L173.086 37.3089H178.106L180.605 29.6415Z" fill="white"/>
</svg>
