<?xml version="1.0" encoding="UTF-8" standalone="no"?>
<svg
        version="1.1"
        xmlns="http://www.w3.org/2000/svg"
        xmlns:xlink="http://www.w3.org/1999/xlink"
        preserveAspectRatio="xMidYMid meet"
        viewBox="0 0 1600 1600"
>
    <defs>
        <path
                d="M1600 800C1600 358.17 1241.83 0 800 0C358.17 0 0 358.17 0 800C0 1241.83 358.17 1600 800 1600C1241.83 1600 1600 1241.83 1600 800Z"
                id="b3ImcVOfNU"
        ></path>
        <path
                d="M806.08 494.42L810.21 494.44L815.15 494.46L820.84 494.5L827.23 494.55L834.29 494.62L841.97 494.7L850.22 494.8L859 494.92L868.27 495.06L877.98 495.22L888.08 495.41L898.54 495.63L909.3 495.87L920.33 496.15L931.57 496.46L942.99 496.8L954.54 497.18L966.17 497.59L977.84 498.05L989.51 498.55L1001.13 499.09L1012.65 499.67L1024.04 500.3L1035.24 500.99L1046.21 501.72L1056.92 502.5L1067.3 503.34L1077.33 504.23L1086.95 505.18L1096.12 506.19L1104.8 507.26L1112.93 508.4L1120.48 509.6L1127.41 510.86L1133.66 512.2L1139.19 513.6L1141.94 514.36L1144.66 515.19L1147.36 516.1L1150.03 517.09L1152.66 518.15L1155.27 519.28L1157.85 520.47L1160.39 521.74L1162.9 523.07L1165.37 524.48L1167.8 525.94L1170.2 527.47L1172.55 529.06L1174.86 530.71L1177.13 532.42L1179.36 534.18L1181.54 536.01L1183.67 537.88L1185.76 539.82L1187.79 541.8L1189.78 543.84L1191.71 545.92L1193.59 548.05L1195.41 550.23L1197.18 552.46L1198.89 554.73L1200.54 557.04L1202.13 559.4L1203.65 561.79L1205.12 564.23L1206.52 566.7L1207.85 569.2L1209.12 571.75L1210.32 574.32L1211.45 576.93L1212.5 579.57L1213.49 582.23L1214.4 584.93L1215.23 587.65L1215.99 590.4L1217.39 595.69L1218.72 601.23L1219.97 607.01L1221.15 612.99L1222.26 619.16L1223.3 625.5L1224.28 631.99L1225.2 638.62L1226.05 645.35L1226.84 652.18L1227.58 659.07L1228.26 666.01L1228.89 672.99L1229.47 679.98L1230 686.95L1230.48 693.9L1230.92 700.8L1231.32 707.63L1231.68 714.37L1231.99 721L1232.28 727.5L1232.53 733.86L1232.74 740.04L1232.93 746.04L1233.09 751.82L1233.22 757.38L1233.33 762.69L1233.42 767.73L1233.49 772.48L1233.55 776.93L1233.58 781.04L1233.61 784.81L1233.62 788.2L1233.63 791.21L1233.63 793.82L1233.62 795.99L1233.61 797.71L1233.61 798.97L1233.6 799.74L1233.6 800L1233.6 800.26L1233.59 801.03L1233.59 802.29L1233.58 804.01L1233.56 806.18L1233.54 808.79L1233.5 811.8L1233.46 815.19L1233.4 818.96L1233.32 823.08L1233.23 827.52L1233.12 832.27L1232.99 837.31L1232.84 842.62L1232.67 848.18L1232.47 853.96L1232.24 859.96L1231.99 866.14L1231.71 872.5L1231.39 879L1231.05 885.63L1230.67 892.37L1230.25 899.2L1229.79 906.1L1229.3 913.05L1228.76 920.02L1228.18 927.01L1227.56 933.99L1226.89 940.93L1226.17 947.83L1225.4 954.65L1224.58 961.38L1223.71 968.01L1222.78 974.5L1221.8 980.84L1220.76 987.01L1219.66 992.99L1218.5 998.77L1217.28 1004.31L1215.99 1009.6L1215.23 1012.35L1214.4 1015.07L1213.49 1017.77L1212.5 1020.43L1211.45 1023.07L1210.32 1025.68L1209.12 1028.25L1207.85 1030.8L1206.52 1033.3L1205.12 1035.78L1203.65 1038.21L1202.13 1040.6L1200.54 1042.96L1198.89 1045.27L1197.18 1047.54L1195.41 1049.77L1193.59 1051.95L1191.71 1054.08L1189.78 1056.16L1187.79 1058.2L1185.76 1060.18L1183.67 1062.12L1181.54 1063.99L1179.36 1065.82L1177.13 1067.58L1174.86 1069.29L1172.55 1070.94L1170.2 1072.53L1167.8 1074.06L1165.37 1075.53L1162.9 1076.93L1160.39 1078.26L1157.85 1079.53L1155.27 1080.72L1152.66 1081.85L1150.03 1082.91L1147.36 1083.9L1144.66 1084.81L1141.94 1085.64L1139.19 1086.4L1133.66 1087.69L1127.41 1088.91L1120.48 1090.07L1112.93 1091.17L1104.8 1092.21L1096.12 1093.19L1086.95 1094.12L1077.33 1094.99L1067.3 1095.81L1056.92 1096.58L1046.21 1097.29L1035.24 1097.96L1024.04 1098.59L1012.65 1099.17L1001.13 1099.7L989.51 1100.2L977.84 1100.65L966.17 1101.07L954.54 1101.45L942.99 1101.8L931.57 1102.11L920.33 1102.4L909.3 1102.65L898.54 1102.87L888.08 1103.07L877.98 1103.25L868.27 1103.4L859 1103.52L850.22 1103.63L841.97 1103.73L834.29 1103.8L827.23 1103.86L820.84 1103.91L815.15 1103.94L810.21 1103.97L806.08 1103.98L802.78 1103.99L800.37 1104L798.9 1104L798.39 1104L797.89 1104L796.41 1104L794 1103.99L790.71 1103.98L786.57 1103.96L781.64 1103.94L775.95 1103.9L769.55 1103.85L762.5 1103.78L754.82 1103.7L746.57 1103.6L737.78 1103.48L728.52 1103.34L718.81 1103.18L708.7 1102.99L698.25 1102.77L687.48 1102.53L676.46 1102.25L665.21 1101.94L653.79 1101.6L642.25 1101.22L630.62 1100.81L618.95 1100.35L607.28 1099.85L595.66 1099.31L584.14 1098.73L572.75 1098.1L561.55 1097.41L550.57 1096.68L539.87 1095.9L529.48 1095.06L519.46 1094.17L509.84 1093.22L500.67 1092.21L491.99 1091.14L483.86 1090L476.3 1088.8L469.38 1087.54L463.13 1086.2L457.6 1084.8L454.85 1084.04L452.13 1083.21L449.43 1082.3L446.76 1081.31L444.12 1080.25L441.52 1079.12L438.94 1077.93L436.4 1076.66L433.89 1075.33L431.42 1073.93L428.99 1072.46L426.59 1070.93L424.24 1069.34L421.92 1067.69L419.65 1065.98L417.43 1064.22L415.25 1062.39L413.12 1060.52L411.03 1058.58L408.99 1056.6L407.01 1054.56L405.08 1052.48L403.2 1050.35L401.38 1048.17L399.61 1045.94L397.9 1043.67L396.25 1041.36L394.66 1039L393.13 1036.61L391.67 1034.18L390.27 1031.7L388.93 1029.2L387.67 1026.65L386.47 1024.08L385.34 1021.47L384.28 1018.83L383.3 1016.17L382.39 1013.47L381.55 1010.75L380.79 1008L379.51 1002.82L378.28 997.38L377.12 991.7L376.02 985.8L374.98 979.7L374 973.42L373.08 966.98L372.2 960.4L371.39 953.7L370.62 946.9L369.9 940.02L369.23 933.09L368.61 926.12L368.03 919.13L367.49 912.15L366.99 905.19L366.54 898.28L366.12 891.42L365.74 884.66L365.39 878L365.08 871.47L364.8 865.08L364.54 858.86L364.32 852.83L364.12 847L363.95 841.4L363.8 836.05L363.67 830.97L363.56 826.18L363.47 821.7L363.39 817.55L363.33 813.75L363.29 810.32L363.25 807.28L363.23 804.65L363.21 802.45L363.2 800.71L363.2 799.44L363.19 798.66L363.19 798.4L363.19 798.14L363.2 797.37L363.2 796.11L363.21 794.39L363.23 792.22L363.25 789.61L363.29 786.6L363.33 783.21L363.39 779.44L363.47 775.33L363.56 770.88L363.67 766.13L363.8 761.09L363.95 755.78L364.12 750.22L364.32 744.44L364.54 738.44L364.8 732.26L365.08 725.9L365.39 719.4L365.74 712.77L366.12 706.03L366.54 699.2L366.99 692.3L367.49 685.35L368.03 678.38L368.61 671.39L369.23 664.41L369.9 657.47L370.62 650.57L371.39 643.75L372.2 637.02L373.08 630.39L374 623.9L374.98 617.56L376.02 611.39L377.12 605.41L378.28 599.63L379.51 594.09L380.79 588.8L381.55 586.05L382.39 583.33L383.3 580.63L384.28 577.97L385.34 575.33L386.47 572.72L387.67 570.15L388.93 567.6L390.27 565.1L391.67 562.63L393.13 560.19L394.66 557.8L396.25 555.44L397.9 553.13L399.61 550.86L401.38 548.63L403.2 546.45L405.08 544.32L407.01 542.24L408.99 540.2L411.03 538.22L413.12 536.28L415.25 534.41L417.43 532.58L419.65 530.82L421.92 529.11L424.24 527.46L426.59 525.87L428.99 524.34L431.42 522.88L433.89 521.47L436.4 520.14L438.94 518.87L441.52 517.68L444.12 516.55L446.76 515.49L449.43 514.5L452.13 513.59L454.85 512.76L457.6 512L463.13 510.71L469.38 509.49L476.3 508.33L483.86 507.23L491.99 506.19L500.67 505.21L509.84 504.28L519.46 503.41L529.48 502.59L539.87 501.83L550.57 501.11L561.55 500.44L572.75 499.81L584.14 499.23L595.66 498.7L607.28 498.2L618.95 497.75L630.62 497.33L642.25 496.95L653.79 496.6L665.21 496.29L676.46 496L687.48 495.75L698.25 495.53L708.7 495.33L718.81 495.15L728.52 495L737.78 494.88L746.57 494.77L754.82 494.67L762.5 494.6L769.55 494.54L775.95 494.49L781.64 494.46L786.57 494.43L790.71 494.42L794 494.41L796.41 494.4L797.89 494.4L798.39 494.4L798.9 494.4L800.37 494.4L802.78 494.41L802.78 494.41L806.08 494.42ZM712 668.8L712 931.2L713.61 931.2L939.21 800L939.21 800L712 668.8Z"
                id="h5qh6YZqy"
        ></path>
    </defs>
    <g>
        <g>
            <g>
                <use
                        xlink:href="#b3ImcVOfNU"
                        opacity="1"
                        fill="#ff0000"
                        fill-opacity="1"
                ></use>
                <g>
                    <use
                            xlink:href="#b3ImcVOfNU"
                            opacity="1"
                            fill-opacity="0"
                            stroke="#000000"
                            stroke-width="1"
                            stroke-opacity="0"
                    ></use>
                </g>
            </g>
            <g>
                <use
                        xlink:href="#h5qh6YZqy"
                        opacity="1"
                        fill="#ffffff"
                        fill-opacity="1"
                ></use>
                <g>
                    <use
                            xlink:href="#h5qh6YZqy"
                            opacity="1"
                            fill-opacity="0"
                            stroke="#000000"
                            stroke-width="1"
                            stroke-opacity="0"
                    ></use>
                </g>
            </g>
        </g>
    </g>
</svg>
